HIERARCHY
ROOT hip
{
  OFFSET 0 0 0
  CHANNELS 6 Xposition Yposition Zposition Zrotation Yrotation Xrotation
  JOINT abdomen
  {
    OFFSET 0 20.6881 -0.73152
    CHANNELS 3 Zrotation Xrotation Yrotation
    JOINT chest
    {
      OFFSET 0 11.7043 -0.48768
      CHANNELS 3 Zrotation Xrotation Yrotation
      JOINT neck
      {
        OFFSET 0 22.1894 -2.19456
        CHANNELS 3 Zrotation Xrotation Yrotation
        JOINT head
        {
          OFFSET -0.24384 7.07133 1.2192
          CHANNELS 3 Zrotation Xrotation Yrotation
          JOINT leftEye
          {
            OFFSET 4.14528 8.04674 8.04672
            CHANNELS 3 Zrotation Xrotation Yrotation
            End Site
            {
              OFFSET 1 0 0
            }
          }
          JOINT rightEye
          {
            OFFSET -3.6576 8.04674 8.04672
            CHANNELS 3 Zrotation Xrotation Yrotation
            End Site
            {
              OFFSET 1 0 0
            }
          }
        }
      }
      JOINT rCollar
      {
        OFFSET -2.68224 19.2634 -4.8768
        CHANNELS 3 Zrotation Xrotation Yrotation
        JOINT rShldr
        {
          OFFSET -8.77824 -1.95073 1.46304
          CHANNELS 3 Zrotation Xrotation Yrotation
          JOINT rForeArm
          {
            OFFSET -28.1742 -1.7115 0.48768
            CHANNELS 3 Zrotation Xrotation Yrotation
            JOINT rHand
            {
              OFFSET -22.5879 0.773209 7.07136
              CHANNELS 3 Zrotation Xrotation Yrotation
              JOINT rThumb1
              {
                OFFSET -1.2192 -0.487915 3.41376
                CHANNELS 3 Zrotation Xrotation Yrotation
                JOINT rThumb2
                {
                  OFFSET -3.37035 -0.52449 3.41376
                  CHANNELS 3 Zrotation Xrotation Yrotation
                  End Site
                  {
                    OFFSET -1.78271 -1.18214 1.43049
                  }
                }
              }
              JOINT rIndex1
              {
                OFFSET -7.75947 0.938293 5.60832
                CHANNELS 3 Zrotation Xrotation Yrotation
                JOINT rIndex2
                {
                  OFFSET -2.54057 -0.884171 1.56538
                  CHANNELS 3 Zrotation Xrotation Yrotation
                  End Site
                  {
                    OFFSET -1.62519 -0.234802 1.16502
                  }
                }
              }
              JOINT rMid1
              {
                OFFSET -8.24714 1.18213 3.41376
                CHANNELS 3 Zrotation Xrotation Yrotation
                JOINT rMid2
                {
                  OFFSET -3.10165 -0.590103 1.0647
                  CHANNELS 3 Zrotation Xrotation Yrotation
                  End Site
                  {
                    OFFSET -2.48547 -0.328903 0.83742
                  }
                }
              }
              JOINT rRing1
              {
                OFFSET -8.82822 0.546677 1.51678
                CHANNELS 3 Zrotation Xrotation Yrotation
                JOINT rRing2
                {
                  OFFSET -2.60934 -0.819778 -0.0198488
                  CHANNELS 3 Zrotation Xrotation Yrotation
                  End Site
                  {
                    OFFSET -2.33842 -0.294052 0.168128
                  }
                }
              }
              JOINT rPinky1
              {
                OFFSET -8.27202 -0.0477905 -0.4584
                CHANNELS 3 Zrotation Xrotation Yrotation
                JOINT rPinky2
                {
                  OFFSET -1.82734 -0.647385 -0.700984
                  CHANNELS 3 Zrotation Xrotation Yrotation
                  End Site
                  {
                    OFFSET -1.69225 -0.51767 -0.607171
                  }
                }
              }
            }
          }
        }
      }
      JOINT lCollar
      {
        OFFSET 2.68224 19.2634 -4.8768
        CHANNELS 3 Zrotation Xrotation Yrotation
        JOINT lShldr
        {
          OFFSET 8.77824 -1.95073 1.46304
          CHANNELS 3 Zrotation Xrotation Yrotation
          JOINT lForeArm
          {
            OFFSET 28.1742 -1.7115 0.48768
            CHANNELS 3 Zrotation Xrotation Yrotation
            JOINT lHand
            {
              OFFSET 22.5879 0.773209 7.07136
              CHANNELS 3 Zrotation Xrotation Yrotation
              JOINT lThumb1
              {
                OFFSET 1.2192 -0.487915 3.41376
                CHANNELS 3 Zrotation Xrotation Yrotation
                JOINT lThumb2
                {
                  OFFSET 3.37035 -0.52449 3.41376
                  CHANNELS 3 Zrotation Xrotation Yrotation
                  End Site
                  {
                    OFFSET 1.78271 -1.18214 1.43049
                  }
                }
              }
              JOINT lIndex1
              {
                OFFSET 7.75947 0.938293 5.60832
                CHANNELS 3 Zrotation Xrotation Yrotation
                JOINT lIndex2
                {
                  OFFSET 2.54057 -0.884171 1.56538
                  CHANNELS 3 Zrotation Xrotation Yrotation
                  End Site
                  {
                    OFFSET 1.62519 -0.234802 1.16502
                  }
                }
              }
              JOINT lMid1
              {
                OFFSET 8.24714 1.18213 3.41376
                CHANNELS 3 Zrotation Xrotation Yrotation
                JOINT lMid2
                {
                  OFFSET 3.10165 -0.590103 1.0647
                  CHANNELS 3 Zrotation Xrotation Yrotation
                  End Site
                  {
                    OFFSET 2.48547 -0.328903 0.83742
                  }
                }
              }
              JOINT lRing1
              {
                OFFSET 8.82822 0.546677 1.51678
                CHANNELS 3 Zrotation Xrotation Yrotation
                JOINT lRing2
                {
                  OFFSET 2.60934 -0.819778 -0.0198488
                  CHANNELS 3 Zrotation Xrotation Yrotation
                  End Site
                  {
                    OFFSET 2.33842 -0.294052 0.168128
                  }
                }
              }
              JOINT lPinky1
              {
                OFFSET 8.27202 -0.0477905 -0.4584
                CHANNELS 3 Zrotation Xrotation Yrotation
                JOINT lPinky2
                {
                  OFFSET 1.82734 -0.647385 -0.700984
                  CHANNELS 3 Zrotation Xrotation Yrotation
                  End Site
                  {
                    OFFSET 1.69225 -0.51767 -0.607171
                  }
                }
              }
            }
          }
        }
      }
    }
  }
  JOINT rButtock
  {
    OFFSET -8.77824 4.35084 1.2192
    CHANNELS 3 Zrotation Xrotation Yrotation
    JOINT rThigh
    {
      OFFSET 0 -1.70687 -2.19456
      CHANNELS 3 Zrotation Xrotation Yrotation
      JOINT rShin
      {
        OFFSET 0 -36.8199 0.73152
        CHANNELS 3 Zrotation Xrotation Yrotation
        JOINT rFoot
        {
          OFFSET 0.73152 -45.1104 -5.12064
          CHANNELS 3 Zrotation Xrotation Yrotation
          End Site
          {
            OFFSET -1.1221 -3.69964 12.103
          }
        }
      }
    }
  }
  JOINT lButtock
  {
    OFFSET 8.77824 4.35084 1.2192
    CHANNELS 3 Zrotation Xrotation Yrotation
    JOINT lThigh
    {
      OFFSET 0 -1.70687 -2.19456
      CHANNELS 3 Zrotation Xrotation Yrotation
      JOINT lShin
      {
        OFFSET 0 -36.8199 0.73152
        CHANNELS 3 Zrotation Xrotation Yrotation
        JOINT lFoot
        {
          OFFSET -0.73152 -45.1104 -5.12064
          CHANNELS 3 Zrotation Xrotation Yrotation
          End Site
          {
            OFFSET 1.1221 -3.69964 12.103
          }
        }
      }
    }
  }
}
MOTION
Frames:	5
Frame Time:	0.00833333
-47.7655 84.1002 37.2196 0.0 0.0 0.0 -1.51927 -0.00282942 -0.0413936 -0.418701 0.00102617 -0.0725116 4.92067e-14 7.95139e-16 1.49088e-16 1.47411e-13 3.18055e-15 4.47265e-16 -0.0 0.0 0.0 -0.0 0.0 0.0 2.45994e-14 5.06668e-17 1.49089e-16 5.18137e-13 1.28589e-15 4.17448e-15 8.89114e-12 -2.62773e-12 -3.18055e-14 1.01853e-10 2.86749e-12 4.67542e-13 2.4024e-10 5.16933e-13 9.31903e-13 4.14876e-10 8.93736e-13 1.60698e-12 2.40243e-10 5.14852e-13 9.22361e-13 7.73091 5.47488 0.417314 2.40239e-10 5.16741e-13 9.35083e-13 2.90554 0.965183 0.102902 2.40248e-10 5.16741e-13 9.31107e-13 10.2786 0.731801 0.0259123 2.40235e-10 5.20021e-13 9.38264e-13 2.22167 -0.733487 -0.20892 2.45021e-14 5.04727e-17 -4.96962e-17 5.14656e-13 1.10574e-15 2.5842e-15 8.90496e-12 2.69989e-12 -6.04305e-14 1.01847e-10 -2.46431e-12 4.99347e-13 2.4026e-10 5.10111e-13 9.25541e-13 4.14934e-10 8.81014e-13 1.59505e-12 2.40253e-10 5.10877e-13 9.38264e-13 -7.73091 5.47488 -0.417314 2.40262e-10 5.09585e-13 9.25541e-13 -2.90554 0.965183 -0.102902 2.40259e-10 5.09783e-13 9.27927e-13 -10.2786 0.731801 -0.0259123 2.40264e-10 5.10877e-13 9.12819e-13 -2.22167 -0.733487 0.20892 -2.03217e-16 0.0 -3.88251e-19 -0.640534 -1.92323 -0.00643638 -0.00925469 -2.07856 -0.0764283 -0.512157 3.99733 0.140312 2.03217e-16 0.0 3.88251e-19 -1.66973 -6.49782 0.154696 -0.00231061 6.208 -0.0679834 0.534042 0.285488 -0.0665677
-46.8792 81.9851 31.8305 -39.4713 83.943 -25.8643 -0.266088 3.03956 0.688357 0.606335 0.682231 0.20009 1.32119 1.38544 0.645037 -1.7527 8.44509 2.64065 -0.0 0.0 0.0 -0.0 0.0 0.0 -8.28849e-15 -5.34691e-13 3.28464e-14 20.4357 19.5612 6.62197 -9.47332 -6.33359 11.9431 0.628336 -17.7472 -2.08313 -3.36186e-11 -1.20983e-10 -9.51624e-11 -5.20483e-11 -2.40599e-10 -1.73711e-10 -3.36152e-11 -1.20987e-10 -9.51796e-11 7.73091 5.47488 0.417314 -3.36201e-11 -1.20983e-10 -9.51609e-11 2.90554 0.965183 0.102902 -3.36119e-11 -1.20983e-10 -9.51631e-11 10.2786 0.731801 0.0259123 -3.36236e-11 -1.2098e-10 -9.5155e-11 2.22167 -0.733487 -0.20892 -8.33194e-15 -5.34689e-13 3.26943e-14 -22.1666 22.2471 -7.69988 9.00487 -5.87511 -11.5988 -0.658077 -18.1706 2.1135 1.03182e-10 1.85366e-10 -1.57178e-10 1.86158e-10 3.37477e-10 -2.72849e-10 1.03177e-10 1.85373e-10 -1.57162e-10 -7.73091 5.47488 -0.417314 1.03183e-10 1.85367e-10 -1.57175e-10 -2.90554 0.965183 -0.102902 1.0318e-10 1.85366e-10 -1.57174e-10 -10.2786 0.731801 -0.0259123 1.03186e-10 1.85367e-10 -1.57184e-10 -2.22167 -0.733487 0.20892 -2.03217e-16 0.0 -3.88251e-19 -2.19797 -10.2991 -0.329042 -0.00735233 6.11417 0.0435889 -0.491009 1.89365 -0.797805 2.03217e-16 0.0 3.88251e-19 1.96847 -13.6689 1.53916 -0.02419 13.2724 -0.209549 0.327133 -2.33384 -0.789188
-46.8766 81.9872 31.8474 -39.3661 83.8463 -25.7696 0.976478 6.25615 1.46929 1.67971 1.40339 0.489322 2.69144 2.8501 1.33376 -4.48191 17.3129 5.63712 -0.0 0.0 0.0 -0.0 0.0 0.0 -4.18986e-14 -1.09544e-12 6.59313e-14 35.8837 39.2739 16.6743 -16.6506 -12.1055 25.0097 -0.418689 -36.4219 -5.07422 -2.81496e-10 -2.62955e-10 -2.13208e-10 -4.73312e-10 -5.12389e-10 -3.85386e-10 -2.81491e-10 -2.62962e-10 -2.13234e-10 7.73091 5.47488 0.417314 -2.81497e-10 -2.62954e-10 -2.13209e-10 2.90554 0.965183 0.102902 -2.8149e-10 -2.62954e-10 -2.13209e-10 10.2786 0.731801 0.0259123 -2.815e-10 -2.62951e-10 -2.132e-10 2.22167 -0.733487 -0.20892 -4.18826e-14 -1.09543e-12 6.58319e-14 -36.8749 44.2378 -20.6797 15.9709 -11.2796 -24.2314 0.44262 -37.2909 5.19505 -6.36644e-11 3.16532e-10 -2.81719e-10 -9.56927e-11 5.88066e-10 -4.90782e-10 -6.36664e-11 3.16547e-10 -2.81698e-10 -7.73091 5.47488 -0.417314 -6.36635e-11 3.16534e-10 -2.8171e-10 -2.90554 0.965183 -0.102902 -6.36673e-11 3.16533e-10 -2.81711e-10 -10.2786 0.731801 -0.0259123 -6.36589e-11 3.16533e-10 -2.81717e-10 -2.22167 -0.733487 0.20892 -2.03217e-16 0.0 -3.88251e-19 -3.95219 -19.1523 -0.700677 -0.0435355 14.7765 0.175727 -0.543424 -0.330562 -1.78687 2.03217e-16 0.0 3.88251e-19 6.21892 -21.2316 3.12629 -0.00667865 20.742 -0.372254 0.0359369 -5.10146 -1.56021
-46.8761 81.989 31.8567 -39.0906 83.7688 -25.4927 2.00533 9.11855 2.17242 2.63695 2.04448 0.745726 3.86979 4.15422 1.93964 -7.79156 25.1085 8.65968 -0.0 0.0 0.0 -0.0 0.0 0.0 -7.40642e-14 -1.60417e-12 9.82412e-14 39.8381 54.3165 33.3713 -20.832 -15.6816 37.2098 -4.1219 -52.8625 -9.8898 -5.81336e-10 -3.63983e-10 -2.87351e-10 -9.85897e-10 -7.23583e-10 -5.24347e-10 -5.81331e-10 -3.63992e-10 -2.87383e-10 7.73091 5.47488 0.417314 -5.81338e-10 -3.63982e-10 -2.87353e-10 2.90554 0.965183 0.102902 -5.81331e-10 -3.63982e-10 -2.87351e-10 10.2786 0.731801 0.0259123 -5.81341e-10 -3.6398e-10 -2.87342e-10 2.22167 -0.733487 -0.20892 -7.39999e-14 -1.60417e-12 9.81822e-14 -34.2464 59.2082 -45.3845 20.1748 -14.7259 -35.9651 4.43183 -54.1045 10.3114 -1.70975e-10 5.55079e-10 -4.73386e-10 -2.71393e-10 1.01067e-09 -8.21738e-10 -1.70975e-10 5.55098e-10 -4.73362e-10 -7.73091 5.47488 -0.417314 -1.70974e-10 5.55081e-10 -4.73375e-10 -2.90554 0.965183 -0.102902 -1.70979e-10 5.55079e-10 -4.73376e-10 -10.2786 0.731801 -0.0259123 -1.70968e-10 5.55079e-10 -4.73379e-10 -2.22167 -0.733487 0.20892 -2.03217e-16 0.0 -3.88251e-19 -5.62615 -27.0472 -1.07605 -0.112292 22.4993 0.306076 -0.655266 -2.31066 -2.67423 2.03217e-16 0.0 3.88251e-19 10.4099 -27.9443 4.73205 0.0495295 27.4004 -0.536923 -0.286336 -7.56738 -2.25209
-46.8714 81.9915 31.859 -38.7946 83.7247 -25.2136 2.66825 11.1011 2.65729 3.31773 2.48553 0.919635 4.63597 5.05912 2.334 -10.685 30.4413 11.0439 -0.0 0.0 0.0 -0.0 0.0 0.0 -1.02619e-13 -1.98288e-12 1.28614e-13 32.8148 61.2511 53.7084 -22.7688 -16.9569 45.9213 -10.5033 -63.9895 -16.7393 -1.01109e-09 -3.62654e-10 -2.51735e-10 -1.72678e-09 -7.83288e-10 -4.81521e-10 -1.01108e-09 -3.62664e-10 -2.5177e-10 7.73091 5.47488 0.417314 -1.01109e-09 -3.62652e-10 -2.51738e-10 2.90554 0.965183 0.102902 -1.01108e-09 -3.62653e-10 -2.51735e-10 10.2786 0.731801 0.0259123 -1.01109e-09 -3.62651e-10 -2.51725e-10 2.22167 -0.733487 -0.20892 -1.02534e-13 -1.98287e-12 1.28564e-13 -19.5322 62.8377 -74.1035 22.1995 -16.0599 -44.3323 11.5538 -65.4287 17.9011 -1.29445e-10 1.06207e-09 -8.32873e-10 -1.81714e-10 1.86331e-09 -1.43525e-09 -1.29444e-10 1.06209e-09 -8.32847e-10 -7.73091 5.47488 -0.417314 -1.29445e-10 1.06208e-09 -8.3286e-10 -2.90554 0.965183 -0.102902 -1.2945e-10 1.06207e-09 -8.32862e-10 -10.2786 0.731801 -0.0259123 -1.29439e-10 1.06207e-09 -8.32863e-10 -2.22167 -0.733487 0.20892 -2.03217e-16 0.0 -3.88251e-19 -6.86419 -32.5502 -1.36505 -0.183836 27.8737 0.408793 -0.770433 -3.68424 -3.30346 2.03217e-16 0.0 3.88251e-19 13.5917 -32.5925 6.01158 0.115543 32.0317 -0.667894 -0.543856 -9.284 -2.72904
